<?xml version="1.0" standalone="no"?>
<!DOCTYPE svg PUBLIC "-//W3C//DTD SVG 20010904//EN"
 "http://www.w3.org/TR/2001/REC-SVG-20010904/DTD/svg10.dtd">
<svg version="1.0" xmlns="http://www.w3.org/2000/svg"
 width="1280.000000pt" height="325.000000pt" viewBox="0 0 1280.000000 325.000000"
 preserveAspectRatio="xMidYMid meet">

<g transform="translate(0.000000,325.000000) scale(0.100000,-0.100000)"
fill="#000000" stroke="none">
<path d="M0 1655 l0 -1595 365 0 365 0 0 1182 c0 650 3 1179 6 1176 3 -4 135
-534 293 -1180 l287 -1173 334 0 334 0 292 1170 292 1170 1 -1172 1 -1173 400
0 400 0 0 1595 0 1595 -597 -2 -598 -3 -240 -990 c-133 -545 -243 -996 -246
-1002 -2 -7 -112 438 -245 990 l-240 1002 -602 3 -602 2 0 -1595z"/>
<path d="M6190 1655 l0 -1595 365 0 365 0 2 1181 3 1180 204 -833 c112 -458
242 -989 288 -1180 l85 -348 333 0 333 0 294 1178 293 1177 3 -1177 2 -1178
395 0 395 0 0 1595 0 1595 -594 0 -594 0 -26 -107 c-197 -822 -461 -1891 -466
-1886 -4 5 -91 361 -194 793 -104 432 -211 878 -238 993 l-50 207 -599 0 -599
0 0 -1595z"/>
<path d="M10316 1678 c-280 -865 -511 -1583 -514 -1596 l-4 -22 373 2 373 3
86 270 85 270 564 0 563 0 82 -270 82 -270 392 -3 c216 -1 392 2 392 6 0 5
-218 722 -484 1593 l-484 1584 -498 3 -499 2 -509 -1572z m1163 179 c96 -331
176 -608 179 -614 3 -10 -75 -13 -368 -13 -338 0 -372 1 -366 16 3 9 88 286
188 615 100 329 184 599 187 599 4 0 84 -271 180 -603z"/>
<path d="M4611 2289 c-250 -29 -495 -144 -663 -313 -206 -206 -308 -476 -308
-818 0 -353 105 -626 322 -833 166 -159 348 -249 592 -291 140 -25 388 -15
525 21 449 117 740 424 816 863 20 115 20 362 -1 483 -47 274 -185 502 -399
662 -243 181 -564 263 -884 226z m316 -538 c99 -44 172 -146 210 -296 25 -99
25 -489 1 -586 -38 -148 -105 -246 -203 -297 -66 -34 -198 -43 -273 -18 -157
53 -242 202 -263 465 -5 69 -7 173 -4 231 17 304 99 461 268 516 64 21 200 13
264 -15z"/>
</g>
</svg>
