<?xml version="1.0" standalone="no"?>
<!DOCTYPE svg PUBLIC "-//W3C//DTD SVG 20010904//EN"
 "http://www.w3.org/TR/2001/REC-SVG-20010904/DTD/svg10.dtd">
<svg version="1.0" xmlns="http://www.w3.org/2000/svg"
 width="512.000000pt" height="512.000000pt" viewBox="0 0 512.000000 512.000000"
 preserveAspectRatio="xMidYMid meet">

<g transform="translate(0.000000,512.000000) scale(0.100000,-0.100000)"
fill="#000000" stroke="none">
<path d="M2340 5000 c-978 -94 -1800 -748 -2106 -1677 -84 -254 -118 -478
-118 -768 0 -223 12 -338 60 -549 201 -896 934 -1629 1830 -1830 211 -48 325
-60 554 -60 228 0 343 12 550 59 820 184 1503 803 1771 1606 88 262 123 486
123 779 0 229 -12 343 -60 554 -133 593 -510 1138 -1024 1481 -313 208 -636
331 -1020 390 -127 19 -430 27 -560 15z m441 -70 c455 -44 909 -227 1264 -510
500 -399 827 -1008 885 -1645 99 -1098 -579 -2132 -1622 -2473 -848 -277
-1761 -69 -2402 548 -456 438 -726 1073 -726 1704 0 1029 662 1946 1635 2265
314 102 652 141 966 111z"/>
<path d="M2570 4610 c0 -13 7 -20 20 -20 13 0 20 7 20 20 0 13 -7 20 -20 20
-13 0 -20 -7 -20 -20z"/>
<path d="M2312 4603 c2 -10 13 -19 26 -21 17 -3 22 2 22 17 0 16 -6 21 -26 21
-19 0 -25 -5 -22 -17z"/>
<path d="M2826 4604 c-8 -21 1 -34 25 -34 23 0 26 35 3 44 -21 8 -21 8 -28
-10z"/>
<path d="M2062 4558 c2 -17 9 -22 23 -20 26 5 27 6 19 26 -3 9 -15 16 -26 16
-14 0 -19 -6 -16 -22z"/>
<path d="M3077 4549 c-6 -21 14 -36 33 -24 15 9 12 32 -6 39 -22 8 -21 9 -27
-15z"/>
<path d="M1829 4503 c-11 -3 -15 -11 -12 -24 6 -23 31 -25 40 -3 7 19 -6 32
-28 27z"/>
<path d="M3321 4471 c-12 -21 -5 -31 21 -31 11 0 18 7 18 19 0 26 -27 34 -39
12z"/>
<path d="M1586 4391 c-7 -10 3 -41 13 -41 17 1 33 20 28 34 -7 17 -32 22 -41
7z"/>
<path d="M3550 4360 c-8 -15 -6 -21 9 -30 16 -8 22 -7 30 8 7 14 5 21 -9 30
-16 10 -21 9 -30 -8z"/>
<path d="M1370 4260 c-13 -8 -13 -11 0 -24 18 -19 46 -5 37 18 -7 18 -16 20
-37 6z"/>
<path d="M1876 4239 c-58 -14 -146 -64 -218 -124 -108 -90 -201 -225 -263
-384 -19 -48 -25 -56 -46 -53 -81 9 -236 12 -247 4 -7 -5 -27 -80 -44 -168
-28 -140 -32 -180 -32 -334 -1 -166 0 -179 26 -248 15 -41 42 -99 60 -129 41
-68 142 -179 198 -218 l43 -30 -74 -11 c-92 -15 -147 -35 -203 -73 -185 -127
-225 -413 -110 -768 53 -164 178 -389 237 -428 40 -25 512 -82 769 -92 151 -5
168 -4 174 11 16 43 -41 311 -103 476 -74 199 -167 358 -328 555 -286 354
-388 591 -388 905 0 124 4 167 31 295 49 238 110 397 197 515 106 144 276 260
382 260 48 0 54 -2 48 -17 -14 -39 -17 -73 -7 -103 l11 -30 -71 0 c-132 0
-233 -28 -204 -57 3 -3 47 0 97 7 77 10 122 9 288 -5 108 -9 206 -19 219 -21
27 -5 28 -28 5 -94 -14 -41 -15 -51 -3 -80 12 -28 17 -32 44 -27 17 3 38 8 47
12 28 11 35 -43 10 -69 -24 -26 -27 -42 -7 -49 15 -6 66 42 66 62 0 7 8 11 18
9 10 -2 16 -11 14 -22 -7 -40 7 -64 45 -76 61 -20 76 -38 70 -87 -15 -135
-148 -265 -337 -329 -44 -15 -85 -19 -200 -19 -80 0 -171 4 -202 9 -54 8 -58
7 -58 -12 0 -23 11 -27 135 -42 143 -18 302 1 412 50 24 10 43 17 43 16 0 -2
-7 -21 -16 -42 -10 -23 -17 -67 -17 -106 0 -146 78 -235 361 -411 105 -66 202
-132 217 -147 l27 -28 -23 -15 c-17 -13 -21 -22 -16 -49 10 -65 34 -108 59
-108 13 0 29 5 36 12 25 25 14 -122 -19 -248 -36 -141 -48 -288 -29 -372 33
-149 186 -359 306 -420 108 -55 328 -98 549 -108 105 -5 144 -4 149 5 4 7 -15
57 -43 114 -87 173 -120 343 -146 767 -23 369 -43 527 -87 675 -49 168 -114
271 -256 406 -150 142 -281 211 -455 239 -89 15 -267 8 -364 -13 -35 -8 -63
-12 -63 -11 0 2 13 22 29 46 54 81 73 188 50 287 -22 99 -145 299 -226 371
-68 59 -126 83 -211 86 -62 2 -79 7 -108 29 -69 52 -168 74 -248 54z m177 -60
c12 -7 38 -25 58 -40 32 -25 43 -28 107 -27 89 1 147 -25 218 -98 78 -79 194
-282 194 -338 0 -12 -7 -12 -35 -3 -31 9 -35 14 -35 44 0 39 -29 73 -64 73
-16 0 -26 7 -29 21 -5 20 -11 21 -58 16 l-51 -6 5 27 c3 15 11 46 18 69 25 81
-26 113 -178 113 l-83 0 0 45 c0 25 -4 45 -10 45 -5 0 -10 -11 -10 -24 0 -41
-11 -56 -41 -56 -49 0 -78 76 -49 131 12 22 14 23 43 8z m-756 -540 c52 -9 63
-14 58 -28 -13 -41 -54 -244 -65 -320 -8 -52 -11 -134 -7 -215 7 -160 37 -286
101 -421 25 -52 42 -95 40 -95 -15 0 -107 73 -164 130 -161 160 -222 360 -190
616 18 148 56 325 71 335 19 12 80 11 156 -2z m1793 -310 c151 -41 274 -120
412 -267 170 -181 239 -421 264 -914 l7 -137 -48 25 c-100 50 -197 25 -351
-93 l-32 -24 28 91 c40 130 53 211 49 320 -4 83 -8 104 -36 161 -58 116 -143
176 -322 225 -100 28 -101 28 -101 12 1 -7 24 -29 51 -48 198 -138 265 -397
184 -705 -51 -191 -55 -210 -55 -295 0 -47 7 -110 15 -140 8 -30 13 -56 11
-58 -7 -6 -84 125 -106 183 -37 94 -34 232 9 395 42 159 49 245 27 328 -31
122 -68 156 -351 333 -234 145 -315 237 -315 356 0 65 34 154 75 198 26 28 44
35 135 53 58 12 125 23 150 26 82 7 224 -5 300 -25z m80 -677 c87 -35 168
-114 200 -197 18 -47 23 -80 23 -150 1 -112 -11 -164 -83 -390 -72 -224 -88
-286 -98 -377 l-8 -73 -12 40 c-22 72 -32 183 -23 248 5 34 23 110 40 170 90
318 54 549 -109 715 -48 49 -50 52 -23 46 15 -4 57 -18 93 -32z m-1724 -161
c17 -10 56 -54 87 -97 30 -44 68 -96 83 -116 26 -36 27 -44 31 -180 7 -199
-21 -317 -108 -465 -38 -64 -174 -205 -263 -272 l-58 -45 -19 25 c-165 209
-276 577 -248 815 17 147 94 262 205 311 94 41 242 53 290 24z m1594 -70 c13
-31 7 -51 -14 -51 -13 0 -38 65 -28 74 13 14 30 4 42 -23z m-1229 -395 c77
-114 168 -301 214 -439 37 -111 75 -283 75 -339 l0 -31 -127 7 c-204 11 -653
61 -680 75 -8 4 19 34 74 81 231 199 323 387 326 667 l2 132 27 -32 c16 -18
55 -72 89 -121z m1899 -11 c39 -20 38 -28 -4 -43 -48 -18 -171 -100 -233 -156
-80 -72 -171 -217 -224 -355 -32 -82 -10 121 27 254 37 130 46 146 107 199 90
76 171 116 240 116 33 0 71 -7 87 -15z m74 -142 c4 -54 10 -108 12 -119 5 -19
-2 -23 -64 -38 -146 -36 -306 -124 -410 -226 -37 -37 -50 -45 -43 -29 69 176
164 307 289 396 56 40 187 113 203 113 4 0 9 -44 13 -97z m31 -248 c11 -90 53
-232 94 -321 l40 -84 -92 6 c-150 9 -311 33 -405 60 -92 27 -163 61 -170 81
-5 18 91 117 163 168 103 73 266 143 336 145 25 0 27 -4 34 -55z"/>
<path d="M3764 4219 c-3 -6 0 -17 8 -25 13 -13 16 -13 27 0 7 8 10 20 6 26 -8
13 -32 13 -41 -1z"/>
<path d="M1164 4099 c-3 -6 0 -17 7 -25 18 -17 44 -2 36 20 -7 18 -33 21 -43
5z"/>
<path d="M3961 4056 c-17 -20 13 -43 34 -26 12 10 13 16 4 26 -6 8 -15 14 -19
14 -4 0 -13 -6 -19 -14z"/>
<path d="M990 3915 c-12 -14 -11 -18 1 -26 20 -12 34 -6 34 16 0 24 -19 30
-35 10z"/>
<path d="M4133 3864 c-3 -8 -1 -20 5 -26 15 -15 43 8 35 28 -7 19 -32 18 -40
-2z"/>
<path d="M2267 3863 c-9 -8 -9 -56 -1 -77 3 -9 13 -16 21 -16 11 0 13 5 7 18
-4 9 -7 32 -6 50 2 30 -6 40 -21 25z"/>
<path d="M1574 3823 c-22 -100 -53 -164 -128 -261 -55 -71 -68 -97 -43 -90 23
7 145 180 167 236 26 69 37 142 22 142 -7 0 -14 -12 -18 -27z"/>
<path d="M1950 3701 c0 -79 -18 -137 -60 -194 -37 -50 -27 -73 12 -26 59 70
89 173 74 253 -11 59 -26 40 -26 -33z"/>
<path d="M836 3713 c-4 -9 0 -23 8 -31 12 -12 15 -12 25 6 9 18 8 23 -8 31
-15 8 -20 7 -25 -6z"/>
<path d="M4290 3665 c-7 -8 -10 -22 -6 -30 4 -13 10 -14 26 -5 16 9 18 15 10
30 -13 24 -14 24 -30 5z"/>
<path d="M705 3489 c-8 -25 13 -43 32 -27 18 15 16 26 -6 38 -16 8 -21 6 -26
-11z"/>
<path d="M1587 3503 c-4 -3 -7 -15 -7 -25 0 -32 -36 -90 -110 -177 -90 -107
-107 -131 -115 -164 -11 -41 11 -33 34 12 11 21 55 78 97 127 77 89 124 169
124 212 0 22 -10 29 -23 15z"/>
<path d="M4411 3441 c-14 -9 -9 -41 6 -41 19 1 33 18 27 33 -7 19 -13 21 -33
8z"/>
<path d="M1667 3383 c-4 -3 -7 -16 -7 -27 0 -44 -50 -125 -139 -224 -50 -57
-98 -117 -107 -133 -20 -40 -30 -124 -15 -133 6 -4 11 -5 11 -3 0 2 4 28 10
56 11 60 40 104 140 216 74 82 117 156 127 220 5 32 -4 45 -20 28z"/>
<path d="M604 3255 c-7 -18 3 -35 21 -35 18 0 28 32 13 42 -19 11 -28 10 -34
-7z"/>
<path d="M1686 3263 c-3 -3 -6 -16 -6 -27 0 -33 -45 -121 -104 -205 -64 -90
-106 -167 -106 -192 0 -35 18 -19 44 37 14 30 50 90 79 132 65 91 103 165 112
214 6 33 -4 56 -19 41z"/>
<path d="M4502 3202 c-12 -8 -7 -42 7 -42 17 1 33 20 28 34 -7 18 -16 20 -35
8z"/>
<path d="M1716 3101 c-7 -64 -29 -112 -114 -250 -57 -92 -74 -140 -76 -215 -2
-75 20 -69 26 7 6 75 29 129 103 246 30 47 59 100 66 118 10 31 12 32 34 17
21 -14 29 -14 73 -1 37 11 61 13 94 6 74 -16 118 16 106 77 -6 34 -27 26 -30
-13 l-3 -38 -65 3 c-36 2 -85 -2 -109 -9 -53 -15 -65 -4 -76 66 -3 25 -10 45
-14 45 -5 0 -11 -27 -15 -59z"/>
<path d="M537 3013 c-13 -12 -7 -31 12 -36 13 -3 21 1 24 14 7 26 -18 41 -36
22z"/>
<path d="M4560 2935 c0 -27 1 -28 24 -19 24 9 20 44 -4 44 -15 0 -20 -7 -20
-25z"/>
<path d="M494 2755 c-4 -9 -2 -21 4 -27 15 -15 44 -1 40 19 -4 23 -36 29 -44
8z"/>
<path d="M4608 2703 c-25 -6 -23 -43 2 -43 15 0 20 7 20 25 0 14 -1 24 -2 24
-2 -1 -11 -3 -20 -6z"/>
<path d="M490 2490 c0 -13 7 -20 20 -20 13 0 20 7 20 20 0 13 -7 20 -20 20
-13 0 -20 -7 -20 -20z"/>
<path d="M4590 2431 c0 -10 9 -21 20 -24 16 -4 20 0 20 19 0 17 -6 24 -20 24
-13 0 -20 -7 -20 -19z"/>
<path d="M517 2253 c-10 -10 -8 -43 2 -43 24 0 38 13 34 31 -5 19 -23 25 -36
12z"/>
<path d="M4557 2181 c-6 -24 0 -31 25 -31 23 0 25 35 2 44 -21 8 -21 8 -27
-13z"/>
<path d="M2283 2176 c-92 -30 -176 -106 -220 -201 -25 -53 -28 -71 -28 -160 0
-89 3 -107 29 -163 38 -81 123 -162 203 -192 82 -31 196 -26 273 12 71 35 143
107 178 178 24 50 27 65 27 165 0 104 -2 113 -31 170 -38 72 -116 148 -182
177 -59 27 -188 34 -249 14z m229 -54 c65 -28 133 -94 165 -161 24 -49 28 -68
28 -146 0 -71 -5 -100 -22 -137 -31 -67 -104 -142 -166 -169 -71 -32 -182 -33
-249 -2 -66 30 -133 96 -165 162 -24 49 -27 68 -27 146 0 104 19 158 79 224
95 104 235 137 357 83z"/>
<path d="M2315 1916 c-24 -17 -27 -112 -4 -127 18 -11 120 -11 138 0 22 14 27
104 6 124 -21 21 -113 23 -140 3z m105 -64 c0 -26 -2 -27 -40 -24 -34 4 -40 7
-40 28 0 21 4 24 40 24 37 0 40 -2 40 -28z"/>
<path d="M574 2004 c-7 -3 -10 -14 -7 -25 7 -25 38 -21 38 5 0 20 -12 28 -31
20z"/>
<path d="M4493 1934 c-5 -14 11 -33 28 -34 14 0 19 34 7 42 -19 12 -28 10 -35
-8z"/>
<path d="M662 1762 c-12 -8 -7 -42 7 -42 17 1 31 18 25 33 -7 19 -13 20 -32 9z"/>
<path d="M4396 1695 c-3 -9 3 -19 14 -25 15 -8 21 -6 29 9 8 15 7 20 -5 25
-24 9 -31 7 -38 -9z"/>
<path d="M773 1524 c-9 -23 13 -40 32 -24 12 10 13 16 4 26 -15 18 -28 18 -36
-2z"/>
<path d="M4276 1473 c-6 -15 8 -32 27 -33 15 0 20 32 6 41 -20 13 -26 11 -33
-8z"/>
<path d="M922 1322 c-12 -8 -7 -42 7 -42 17 1 31 18 25 33 -7 19 -13 20 -32 9z"/>
<path d="M4127 1266 c-8 -20 20 -43 35 -28 14 14 3 42 -16 42 -7 0 -16 -6 -19
-14z"/>
<path d="M1090 1126 c-10 -13 -10 -19 0 -32 12 -14 15 -14 29 0 14 15 14 17 0
32 -14 14 -17 14 -29 0z"/>
<path d="M3960 1086 c-10 -13 -10 -19 0 -32 12 -14 15 -14 29 0 14 15 14 17 0
32 -14 14 -17 14 -29 0z"/>
<path d="M1281 956 c-14 -17 -7 -36 14 -36 22 0 29 20 13 36 -13 13 -16 13
-27 0z"/>
<path d="M3762 922 c-12 -8 -7 -42 7 -42 17 1 33 20 28 34 -7 18 -16 20 -35 8z"/>
<path d="M1483 804 c-5 -14 11 -33 28 -34 10 0 20 31 13 41 -9 15 -34 10 -41
-7z"/>
<path d="M3543 782 c-10 -7 -10 -12 1 -27 12 -16 16 -17 30 -6 12 10 14 17 5
27 -13 16 -19 17 -36 6z"/>
<path d="M1716 694 c-10 -26 -7 -34 13 -34 26 0 34 27 12 40 -14 7 -20 6 -25
-6z"/>
<path d="M3313 672 c-10 -7 -10 -12 0 -26 16 -22 47 -12 40 15 -6 20 -20 24
-40 11z"/>
<path d="M1956 612 c-14 -14 -5 -42 14 -42 11 0 20 2 20 4 0 2 3 11 6 19 5 14
-29 31 -40 19z"/>
<path d="M3074 594 c-7 -3 -10 -14 -7 -25 7 -25 38 -21 38 5 0 20 -12 28 -31
20z"/>
<path d="M2202 538 c2 -13 10 -24 19 -26 21 -4 32 35 12 42 -27 11 -34 6 -31
-16z"/>
<path d="M2816 541 c-10 -16 5 -42 23 -39 21 4 21 42 -1 46 -9 2 -19 -1 -22
-7z"/>
<path d="M2520 510 c0 -13 7 -20 20 -20 13 0 20 7 20 20 0 13 -7 20 -20 20
-13 0 -20 -7 -20 -20z"/>
</g>
</svg>
