<?xml version="1.0" standalone="no"?>
<!DOCTYPE svg PUBLIC "-//W3C//DTD SVG 20010904//EN"
 "http://www.w3.org/TR/2001/REC-SVG-20010904/DTD/svg10.dtd">
<svg version="1.0" xmlns="http://www.w3.org/2000/svg"
 width="512.000000pt" height="512.000000pt" viewBox="0 0 512.000000 512.000000"
 preserveAspectRatio="xMidYMid meet">

<g transform="translate(0.000000,512.000000) scale(0.100000,-0.100000)"
fill="#000000" stroke="none">
<path d="M2805 4782 c-6 -16 7 -31 47 -53 13 -7 20 -4 28 11 9 17 5 22 -29 39
-36 19 -40 19 -46 3z"/>
<path d="M2543 4764 c-7 -20 -55 11 432 -271 226 -130 419 -242 430 -249 16
-12 -71 -14 -565 -14 l-585 0 165 95 c150 86 165 97 165 122 0 17 -6 29 -16
31 -9 1 -114 -54 -233 -123 l-217 -125 -253 0 c-186 0 -257 -3 -269 -12 -9 -7
-73 -109 -140 -227 l-124 -214 -211 -122 c-116 -67 -218 -127 -226 -134 -14
-12 -16 -111 -16 -971 0 -899 1 -958 18 -972 25 -22 1648 -958 1662 -958 6 0
109 56 228 125 l218 125 209 -2 210 -3 -443 -255 c-415 -239 -466 -274 -427
-287 9 -3 1908 1087 1929 1107 5 5 6 16 3 25 -8 20 22 36 -486 -257 -227 -132
-415 -238 -416 -236 -2 2 43 84 99 182 l104 178 208 120 c115 66 217 127 227
136 15 14 17 40 17 271 l0 257 125 216 c69 120 125 222 125 228 0 5 -106 193
-235 417 -129 223 -235 410 -235 414 0 5 102 10 228 11 l227 3 0 25 0 25 -247
5 c-145 3 -251 9 -257 15 -8 9 -346 589 -380 653 -16 29 -40 42 302 -155 248
-143 308 -170 295 -131 -4 12 -1614 947 -1631 948 -4 0 -10 -7 -14 -16z m-568
-613 c-15 -14 -509 -299 -513 -296 -2 2 36 71 83 154 l87 151 176 0 c108 0
172 -4 167 -9z m1693 -303 c99 -172 190 -330 202 -350 l22 -38 -625 0 -625 0
-31 55 -31 55 -79 0 c-88 0 -89 -1 -136 -86 -33 -59 -31 -76 17 -149 l33 -50
85 0 84 0 30 53 30 52 645 -2 645 -3 238 -410 c130 -225 237 -416 238 -424 0
-12 -85 -166 -151 -275 l-19 -31 0 67 c0 60 2 67 23 74 12 4 25 12 29 18 12
17 9 275 -2 297 -9 17 -22 19 -100 19 -78 0 -91 -2 -100 -19 -11 -21 -14 -268
-4 -295 4 -9 23 -19 45 -22 l39 -7 0 -128 0 -129 -216 -374 -217 -375 -373
-215 -374 -216 -130 0 c-129 0 -130 0 -130 23 0 13 -5 28 -12 35 -17 17 -299
17 -316 0 -16 -16 -16 -170 0 -186 17 -17 299 -17 316 0 7 7 12 22 12 35 0 22
4 23 67 23 36 0 64 -2 62 -4 -2 -2 -70 -42 -151 -89 l-148 -85 -752 434 c-414
239 -756 438 -761 443 -4 4 313 11 705 15 683 7 714 7 726 -11 7 -10 23 -34
35 -53 l23 -35 84 0 85 0 39 69 40 68 -35 65 c-19 35 -42 69 -52 74 -9 6 -50
9 -90 7 l-72 -3 -30 -51 -30 -51 -305 -6 c-168 -4 -511 -7 -762 -7 l-458 0 0
914 0 913 151 87 c83 48 152 86 154 84 1 -2 -33 -65 -77 -141 -67 -115 -78
-140 -67 -153 29 -35 50 -12 162 182 l110 191 371 215 371 216 681 1 682 1
180 -312z m-1103 -390 c19 -36 19 -36 0 -72 -18 -33 -23 -36 -66 -36 -43 0
-49 3 -68 35 l-21 36 21 40 c19 39 21 40 67 37 43 -3 49 -6 67 -40z m1665
-908 l0 -100 -40 0 -40 0 0 100 0 100 40 0 40 0 0 -100z m-67 -931 c-15 -14
-294 -171 -297 -168 -1 2 65 121 148 264 l151 260 3 -174 c1 -96 -1 -178 -5
-182z m-1477 42 l21 -38 -21 -36 c-19 -34 -24 -37 -68 -37 -45 0 -49 2 -67 38
-19 37 -19 37 2 75 19 34 24 37 66 37 43 0 47 -3 67 -39z m889 -570 l-87 -151
-176 0 c-96 0 -172 3 -168 7 12 12 511 300 515 297 1 -2 -36 -71 -84 -153z
m-915 -186 l0 -35 -100 0 -100 0 0 35 0 35 100 0 100 0 0 -35z"/>
<path d="M2593 3725 c-3 -9 -2 -20 3 -25 5 -5 113 -6 239 -2 195 6 230 9 230
22 0 13 -34 15 -233 18 -205 2 -233 0 -239 -13z"/>
<path d="M2757 3633 c-4 -3 -7 -12 -7 -20 0 -20 845 -19 853 1 3 8 3 17 0 20
-9 8 -838 8 -846 -1z"/>
<path d="M2056 3491 c-20 -32 -36 -63 -36 -69 0 -6 16 -38 36 -71 l36 -61 74
0 74 0 31 48 c43 67 45 87 19 135 -41 74 -45 77 -126 77 l-73 0 -35 -59z m169
-41 c15 -28 14 -33 -2 -60 -14 -25 -24 -30 -55 -30 -27 0 -41 6 -52 22 -34 48
-6 98 54 98 34 0 42 -4 55 -30z"/>
<path d="M1765 3524 c-22 -23 -55 -90 -54 -111 0 -10 13 -38 28 -63 27 -45 27
-45 90 -48 72 -3 83 3 121 72 l24 45 -23 43 c-40 73 -48 78 -112 78 -39 0 -63
-5 -74 -16z m117 -79 c18 -40 -3 -75 -45 -75 -27 0 -36 5 -46 26 -10 22 -9 31
4 50 22 34 71 33 87 -1z"/>
<path d="M1432 3495 c-11 -13 -25 -38 -32 -55 -11 -28 -10 -35 17 -78 26 -43
32 -47 73 -50 64 -5 83 3 108 47 28 51 28 64 -3 118 -26 43 -26 43 -85 43 -50
0 -61 -3 -78 -25z m107 -59 c18 -22 -3 -56 -34 -56 -18 0 -26 7 -31 24 -3 14
-3 30 1 35 9 16 51 13 64 -3z"/>
<path d="M2172 3222 c-15 -10 -392 -662 -391 -677 0 -5 87 -158 192 -340 l192
-330 395 0 395 0 192 330 c105 182 192 335 192 340 1 6 -86 161 -192 345
l-193 335 -384 2 c-212 2 -391 -1 -398 -5z m913 -359 c94 -162 171 -301 173
-309 2 -7 -75 -148 -170 -313 l-173 -301 -355 0 -355 0 -173 301 c-95 165
-172 306 -170 313 2 7 80 146 173 309 l170 296 355 0 355 0 170 -296z"/>
<path d="M2289 3032 c-8 -2 -76 -111 -152 -243 l-138 -240 139 -242 140 -242
282 0 282 0 67 115 c36 63 99 172 140 242 l73 127 -138 238 c-75 131 -138 239
-139 241 -3 4 -538 8 -556 4z m656 -263 l127 -220 -113 -197 c-62 -108 -121
-209 -131 -224 l-19 -28 -249 0 -249 0 -19 28 c-10 15 -69 116 -131 224 l-113
197 127 220 127 221 258 0 258 0 127 -221z"/>
<path d="M2566 2825 c-9 -34 -1 -45 33 -45 23 0 30 5 34 27 7 36 2 43 -33 43
-22 0 -29 -6 -34 -25z"/>
<path d="M2443 2828 c-28 -13 -28 -19 -5 -47 33 -40 75 -8 56 43 -7 18 -20 19
-51 4z"/>
<path d="M2695 2783 c-17 -25 -17 -27 6 -44 23 -17 25 -17 46 3 24 23 19 39
-18 58 -13 8 -21 4 -34 -17z"/>
<path d="M2332 2740 c-12 -16 -22 -31 -22 -33 0 -3 14 -10 30 -17 27 -11 32
-11 45 6 19 25 19 27 -8 52 l-23 22 -22 -30z"/>
<path d="M2783 2685 c-19 -13 -21 -19 -11 -40 11 -25 28 -30 60 -17 15 6 15
11 3 40 -16 36 -22 38 -52 17z"/>
<path d="M2277 2623 c-4 -3 -7 -19 -7 -35 0 -25 3 -28 35 -28 32 0 35 3 35 29
0 17 -6 31 -16 35 -20 8 -39 8 -47 -1z"/>
<path d="M2787 2533 c-6 -32 -2 -38 34 -47 24 -5 27 -3 32 27 6 41 2 47 -32
47 -23 0 -30 -5 -34 -27z"/>
<path d="M2737 2416 c-15 -22 -14 -25 7 -45 l22 -21 22 23 c28 30 28 41 -3 55
-33 15 -30 16 -48 -12z"/>
<path d="M2643 2350 c-25 -10 -26 -13 -17 -47 7 -26 31 -30 58 -10 15 11 16
17 5 40 -13 30 -14 30 -46 17z"/>
<path d="M2643 1373 c-29 -4 -33 -8 -33 -34 0 -27 3 -29 35 -29 33 0 35 2 35
35 0 19 -1 34 -2 33 -2 0 -18 -3 -35 -5z"/>
<path d="M2750 1345 c0 -33 2 -35 35 -35 33 0 35 2 35 35 0 33 -2 35 -35 35
-33 0 -35 -2 -35 -35z"/>
<path d="M2890 1345 c0 -32 2 -35 30 -35 28 0 30 3 30 35 0 32 -2 35 -30 35
-28 0 -30 -3 -30 -35z"/>
<path d="M3020 1345 c0 -33 2 -35 35 -35 33 0 35 2 35 35 0 33 -2 35 -35 35
-33 0 -35 -2 -35 -35z"/>
<path d="M2070 1335 c0 -33 2 -35 35 -35 28 0 35 4 35 19 0 37 -12 51 -41 51
-26 0 -29 -3 -29 -35z"/>
<path d="M2200 1335 c0 -33 2 -35 35 -35 33 0 35 2 35 35 0 33 -2 35 -35 35
-33 0 -35 -2 -35 -35z"/>
<path d="M2340 1335 c0 -33 2 -35 35 -35 33 0 35 2 35 35 0 33 -2 35 -35 35
-33 0 -35 -2 -35 -35z"/>
<path d="M2480 1335 c0 -32 2 -35 29 -35 36 0 41 7 34 43 -4 22 -11 27 -34 27
-26 0 -29 -3 -29 -35z"/>
<path d="M1660 1324 c0 -34 1 -35 33 -32 28 3 32 7 35 36 3 31 2 32 -32 32
-35 0 -36 -1 -36 -36z"/>
<path d="M1792 1328 c3 -29 7 -33 36 -36 31 -3 32 -2 32 32 0 35 -1 36 -36 36
-34 0 -35 -1 -32 -32z"/>
<path d="M1930 1330 c0 -28 3 -30 35 -30 32 0 35 2 35 30 0 28 -3 30 -35 30
-32 0 -35 -2 -35 -30z"/>
<path d="M2957 4703 c-15 -14 -6 -33 23 -48 53 -27 72 8 21 38 -33 19 -35 20
-44 10z"/>
<path d="M3101 4611 c-9 -16 -6 -22 26 -41 29 -17 38 -18 44 -8 12 19 8 26
-28 49 -31 20 -32 20 -42 0z"/>
<path d="M3246 4524 c-3 -9 -6 -16 -6 -18 0 -1 16 -10 36 -21 30 -16 37 -17
45 -4 13 21 12 24 -26 42 -43 21 -41 21 -49 1z"/>
<path d="M3396 4444 c-8 -21 -1 -31 34 -49 27 -14 30 -14 40 5 9 17 5 22 -29
39 -34 18 -40 19 -45 5z"/>
<path d="M3547 4363 c-15 -14 -6 -33 23 -48 53 -27 72 8 21 38 -33 19 -35 20
-44 10z"/>
<path d="M3690 4270 c-8 -15 -4 -22 27 -40 29 -17 38 -18 44 -8 13 21 11 25
-26 47 -34 20 -35 20 -45 1z"/>
<path d="M632 2000 l3 -572 483 -279 c266 -154 487 -277 493 -274 5 4 9 12 9
20 0 7 -214 136 -475 287 l-474 273 -3 555 c-3 520 -4 555 -21 558 -16 3 -17
-27 -15 -568z"/>
<path d="M836 1068 c-21 -30 -20 -33 11 -47 24 -11 29 -10 45 9 24 29 23 35
-7 48 -33 15 -31 16 -49 -10z"/>
<path d="M1073 934 c-16 -25 -16 -27 8 -45 31 -24 32 -24 52 11 l18 29 -30 16
c-29 15 -31 14 -48 -11z"/>
<path d="M1308 795 c-10 -21 -8 -28 8 -40 27 -21 39 -18 55 11 12 23 12 27 -6
40 -28 20 -44 17 -57 -11z"/>
<path d="M1545 660 c-15 -29 -15 -30 14 -44 28 -15 30 -14 46 11 17 25 17 27
-6 44 -32 25 -36 24 -54 -11z"/>
<path d="M1784 529 c-8 -17 -14 -32 -12 -34 2 -1 14 -8 27 -15 22 -11 27 -10
43 10 24 29 23 32 -12 52 -30 17 -30 17 -46 -13z"/>
</g>
</svg>
