<?xml version="1.0" standalone="no"?>
<!DOCTYPE svg PUBLIC "-//W3C//DTD SVG 20010904//EN"
 "http://www.w3.org/TR/2001/REC-SVG-20010904/DTD/svg10.dtd">
<svg version="1.0" xmlns="http://www.w3.org/2000/svg"
 width="200.000000pt" height="200.000000pt" viewBox="0 0 200.000000 200.000000"
 preserveAspectRatio="xMidYMid meet">

<g transform="translate(0.000000,200.000000) scale(0.100000,-0.100000)"
fill="#000000" stroke="none">
<path d="M1135 1886 c-201 -50 -345 -232 -345 -438 l0 -58 195 0 195 0 2 -197
3 -198 48 -3 c214 -14 425 166 456 388 19 137 -25 275 -120 375 -115 122 -276
170 -434 131z"/>
<path d="M395 1377 c-3 -6 -4 -185 -3 -397 l3 -385 115 -3 c63 -1 120 1 126 5
5 5 70 97 144 206 73 108 136 197 139 197 3 0 55 -74 114 -163 165 -247 147
-244 147 -26 l0 186 -37 7 c-53 8 -151 57 -199 100 -69 60 -128 162 -148 259
l-6 27 -196 0 c-147 0 -196 -3 -199 -13z"/>
<path d="M1180 602 c0 -9 -67 -12 -273 -12 l-273 0 -162 -239 c-89 -132 -162
-242 -162 -245 0 -3 275 -6 611 -6 l610 0 -167 248 c-179 265 -184 272 -184
254z"/>
</g>
</svg>
